<svg width="32" height="32" viewBox="0 0 72 52" fill="none" xmlns="http://www.w3.org/2000/svg">
<path d="M31.9844 23.9531C31.8594 23.5156 31.7344 23.1406 31.6094 22.8281C31.4844 22.5 31.3516 22.2109 31.2109 21.9609C31.0859 21.6953 30.9375 21.4609 30.7656 21.2578C30.6094 21.0547 30.4219 20.8438 30.2031 20.625C29.6719 20.0781 29.0625 19.6719 28.375 19.4062C27.7031 19.125 26.9844 18.9844 26.2188 18.9844C25.25 18.9844 24.3672 19.1719 23.5703 19.5469C22.7891 19.9219 22.1172 20.4609 21.5547 21.1641C21.0078 21.8516 20.5859 22.6875 20.2891 23.6719C19.9922 24.6562 19.8438 25.75 19.8438 26.9531C19.8438 28.5156 20.0547 29.8828 20.4766 31.0547C20.8984 32.2266 21.5 33.1406 22.2812 33.7969C23.4531 34.7344 24.8516 35.2031 26.4766 35.2031C27.5859 35.2031 28.6094 34.9922 29.5469 34.5703C30.4844 34.1484 31.4531 33.4609 32.4531 32.5078L32.9219 32.9766C32.1094 34.0547 31.0703 34.8906 29.8047 35.4844C28.5547 36.0781 27.1641 36.375 25.6328 36.375C24.3047 36.375 23.0938 36.1562 22 35.7188C20.9062 35.2812 19.9688 34.6719 19.1875 33.8906C18.4062 33.0938 17.7969 32.1406 17.3594 31.0312C16.9375 29.9219 16.7266 28.6875 16.7266 27.3281C16.7266 25.7812 16.9922 24.3906 17.5234 23.1562C18.0547 21.9062 18.8359 20.8594 19.8672 20.0156C20.6797 19.3594 21.5938 18.8516 22.6094 18.4922C23.625 18.1172 24.6484 17.9297 25.6797 17.9297C27.0078 17.9297 28.3203 18.1484 29.6172 18.5859C30.0547 18.7422 30.4062 18.8203 30.6719 18.8203C30.9375 18.8203 31.1641 18.7422 31.3516 18.5859C31.5547 18.4297 31.6953 18.2109 31.7734 17.9297H32.3359L32.5938 23.9531H31.9844Z" fill="white"/>
<path d="M55.9375 36H49.1172V35.5078C49.3516 35.5078 49.5469 35.5078 49.7031 35.5078C49.8594 35.4922 49.9844 35.4766 50.0781 35.4609C50.1875 35.4297 50.2812 35.4062 50.3594 35.3906C50.4375 35.3594 50.5156 35.3203 50.5938 35.2734C50.7188 35.1953 50.8125 35.1016 50.875 34.9922C50.9531 34.8672 50.9922 34.7422 50.9922 34.6172C50.9922 34.1797 50.8203 33.5703 50.4766 32.7891L49.3516 30.2344H42.3672L41.125 33.3516C41.0625 33.5234 41.0078 33.7031 40.9609 33.8906C40.9297 34.0625 40.9141 34.2344 40.9141 34.4062C40.9141 34.7656 41.0547 35.0391 41.3359 35.2266C41.6172 35.4141 42.0859 35.5078 42.7422 35.5078V36H37.4219V35.5078C37.75 35.4922 38.0312 35.4375 38.2656 35.3438C38.5 35.25 38.7344 35.0547 38.9688 34.7578C39.2031 34.4453 39.4531 34.0078 39.7188 33.4453C40 32.8672 40.3516 32.0859 40.7734 31.1016L46.3281 17.9766H46.8438L53.5234 33.1641C53.7422 33.6641 53.9297 34.0625 54.0859 34.3594C54.2578 34.6562 54.4297 34.8906 54.6016 35.0625C54.7734 35.2188 54.9609 35.3281 55.1641 35.3906C55.3828 35.4531 55.6406 35.4922 55.9375 35.5078V36ZM49 29.1562L45.9062 21.7734L42.8125 29.1562H49Z" fill="white"/>
<path d="M43.1875 22.8359C43.1094 22.3047 43.0078 21.875 42.8828 21.5469C42.7734 21.2031 42.6094 20.9375 42.3906 20.75C42.1875 20.5625 41.9062 20.4375 41.5469 20.375C41.2031 20.2969 40.7656 20.2578 40.2344 20.2578H36.3672V26.1172C36.3672 26.5859 36.3906 26.9688 36.4375 27.2656C36.5 27.5625 36.6172 27.8047 36.7891 27.9922C36.9766 28.1641 37.2266 28.2891 37.5391 28.3672C37.8672 28.4297 38.2891 28.4766 38.8047 28.5078V29H31.3281V28.5078C31.8281 28.4766 32.2266 28.4219 32.5234 28.3438C32.8359 28.2656 33.0703 28.1328 33.2266 27.9453C33.3984 27.7422 33.5078 27.4766 33.5547 27.1484C33.6172 26.8047 33.6484 26.3516 33.6484 25.7891V14.2109C33.6484 13.7422 33.6172 13.3594 33.5547 13.0625C33.5078 12.7656 33.3984 12.5312 33.2266 12.3594C33.0547 12.1875 32.8125 12.0625 32.5 11.9844C32.2031 11.9062 31.8125 11.8516 31.3281 11.8203V11.2812H45.5312L45.5781 15.125H44.9453C44.8203 14.5156 44.6797 14.0312 44.5234 13.6719C44.3672 13.2969 44.1406 13.0078 43.8438 12.8047C43.5625 12.6016 43.1797 12.4688 42.6953 12.4062C42.2266 12.3438 41.6172 12.3125 40.8672 12.3125H37.2344C36.8594 12.3125 36.6172 12.3672 36.5078 12.4766C36.4141 12.5859 36.3672 12.8359 36.3672 13.2266V19.1562H40.2344C40.7656 19.1562 41.2031 19.125 41.5469 19.0625C41.9062 19 42.1875 18.875 42.3906 18.6875C42.6094 18.5 42.7734 18.2422 42.8828 17.9141C43.0078 17.5859 43.1094 17.1562 43.1875 16.625H43.8203V22.8359H43.1875Z" fill="white"/>
</svg>
