<svg width="350" height="150" viewBox="0 0 133 52" fill="none" xmlns="http://www.w3.org/2000/svg">
<g clip-path="url(#clip0_4_6)">
<path d="M16.9844 26.9531C16.8594 26.5156 16.7344 26.1406 16.6094 25.8281C16.4844 25.5 16.3516 25.2109 16.2109 24.9609C16.0859 24.6953 15.9375 24.4609 15.7656 24.2578C15.6094 24.0547 15.4219 23.8438 15.2031 23.625C14.6719 23.0781 14.0625 22.6719 13.375 22.4062C12.7031 22.125 11.9844 21.9844 11.2188 21.9844C10.25 21.9844 9.36719 22.1719 8.57031 22.5469C7.78906 22.9219 7.11719 23.4609 6.55469 24.1641C6.00781 24.8516 5.58594 25.6875 5.28906 26.6719C4.99219 27.6562 4.84375 28.75 4.84375 29.9531C4.84375 31.5156 5.05469 32.8828 5.47656 34.0547C5.89844 35.2266 6.5 36.1406 7.28125 36.7969C8.45312 37.7344 9.85156 38.2031 11.4766 38.2031C12.5859 38.2031 13.6094 37.9922 14.5469 37.5703C15.4844 37.1484 16.4531 36.4609 17.4531 35.5078L17.9219 35.9766C17.1094 37.0547 16.0703 37.8906 14.8047 38.4844C13.5547 39.0781 12.1641 39.375 10.6328 39.375C9.30469 39.375 8.09375 39.1562 7 38.7188C5.90625 38.2812 4.96875 37.6719 4.1875 36.8906C3.40625 36.0938 2.79688 35.1406 2.35938 34.0312C1.9375 32.9219 1.72656 31.6875 1.72656 30.3281C1.72656 28.7812 1.99219 27.3906 2.52344 26.1562C3.05469 24.9062 3.83594 23.8594 4.86719 23.0156C5.67969 22.3594 6.59375 21.8516 7.60938 21.4922C8.625 21.1172 9.64844 20.9297 10.6797 20.9297C12.0078 20.9297 13.3203 21.1484 14.6172 21.5859C15.0547 21.7422 15.4062 21.8203 15.6719 21.8203C15.9375 21.8203 16.1641 21.7422 16.3516 21.5859C16.5547 21.4297 16.6953 21.2109 16.7734 20.9297H17.3359L17.5938 26.9531H16.9844Z" fill="white"/>
<path d="M40.9375 39H34.1172V38.5078C34.3516 38.5078 34.5469 38.5078 34.7031 38.5078C34.8594 38.4922 34.9844 38.4766 35.0781 38.4609C35.1875 38.4297 35.2812 38.4062 35.3594 38.3906C35.4375 38.3594 35.5156 38.3203 35.5938 38.2734C35.7188 38.1953 35.8125 38.1016 35.875 37.9922C35.9531 37.8672 35.9922 37.7422 35.9922 37.6172C35.9922 37.1797 35.8203 36.5703 35.4766 35.7891L34.3516 33.2344H27.3672L26.125 36.3516C26.0625 36.5234 26.0078 36.7031 25.9609 36.8906C25.9297 37.0625 25.9141 37.2344 25.9141 37.4062C25.9141 37.7656 26.0547 38.0391 26.3359 38.2266C26.6172 38.4141 27.0859 38.5078 27.7422 38.5078V39H22.4219V38.5078C22.75 38.4922 23.0312 38.4375 23.2656 38.3438C23.5 38.25 23.7344 38.0547 23.9688 37.7578C24.2031 37.4453 24.4531 37.0078 24.7188 36.4453C25 35.8672 25.3516 35.0859 25.7734 34.1016L31.3281 20.9766H31.8438L38.5234 36.1641C38.7422 36.6641 38.9297 37.0625 39.0859 37.3594C39.2578 37.6562 39.4297 37.8906 39.6016 38.0625C39.7734 38.2188 39.9609 38.3281 40.1641 38.3906C40.3828 38.4531 40.6406 38.4922 40.9375 38.5078V39ZM34 32.1562L30.9062 24.7734L27.8125 32.1562H34Z" fill="white"/>
<path d="M28.1875 25.8359C28.1094 25.3047 28.0078 24.875 27.8828 24.5469C27.7734 24.2031 27.6094 23.9375 27.3906 23.75C27.1875 23.5625 26.9062 23.4375 26.5469 23.375C26.2031 23.2969 25.7656 23.2578 25.2344 23.2578H21.3672V29.1172C21.3672 29.5859 21.3906 29.9688 21.4375 30.2656C21.5 30.5625 21.6172 30.8047 21.7891 30.9922C21.9766 31.1641 22.2266 31.2891 22.5391 31.3672C22.8672 31.4297 23.2891 31.4766 23.8047 31.5078V32H16.3281V31.5078C16.8281 31.4766 17.2266 31.4219 17.5234 31.3438C17.8359 31.2656 18.0703 31.1328 18.2266 30.9453C18.3984 30.7422 18.5078 30.4766 18.5547 30.1484C18.6172 29.8047 18.6484 29.3516 18.6484 28.7891V17.2109C18.6484 16.7422 18.6172 16.3594 18.5547 16.0625C18.5078 15.7656 18.3984 15.5312 18.2266 15.3594C18.0547 15.1875 17.8125 15.0625 17.5 14.9844C17.2031 14.9062 16.8125 14.8516 16.3281 14.8203V14.2812H30.5312L30.5781 18.125H29.9453C29.8203 17.5156 29.6797 17.0312 29.5234 16.6719C29.3672 16.2969 29.1406 16.0078 28.8438 15.8047C28.5625 15.6016 28.1797 15.4688 27.6953 15.4062C27.2266 15.3438 26.6172 15.3125 25.8672 15.3125H22.2344C21.8594 15.3125 21.6172 15.3672 21.5078 15.4766C21.4141 15.5859 21.3672 15.8359 21.3672 16.2266V22.1562H25.2344C25.7656 22.1562 26.2031 22.125 26.5469 22.0625C26.9062 22 27.1875 21.875 27.3906 21.6875C27.6094 21.5 27.7734 21.2422 27.8828 20.9141C28.0078 20.5859 28.1094 20.1562 28.1875 19.625H28.8203V25.8359H28.1875Z" fill="white"/>
<path d="M52.6367 25.6992H51.1758C51.1341 25.4596 51.0573 25.2474 50.9453 25.0625C50.8333 24.875 50.694 24.7161 50.5273 24.5859C50.3607 24.4557 50.1706 24.3581 49.957 24.293C49.7461 24.2253 49.5182 24.1914 49.2734 24.1914C48.8385 24.1914 48.4531 24.3008 48.1172 24.5195C47.7813 24.7357 47.5182 25.0534 47.3281 25.4727C47.138 25.8893 47.043 26.3984 47.043 27C47.043 27.612 47.138 28.1276 47.3281 28.5469C47.5208 28.9635 47.7839 29.2786 48.1172 29.4922C48.4531 29.7031 48.8372 29.8086 49.2695 29.8086C49.5091 29.8086 49.7331 29.7773 49.9414 29.7148C50.1523 29.6497 50.3411 29.5547 50.5078 29.4297C50.6771 29.3047 50.819 29.151 50.9336 28.9687C51.0508 28.7865 51.1315 28.5781 51.1758 28.3437L52.6367 28.3516C52.582 28.7318 52.4635 29.0885 52.2812 29.4219C52.1016 29.7552 51.8659 30.0495 51.5742 30.3047C51.2826 30.5573 50.9414 30.7552 50.5508 30.8984C50.1602 31.0391 49.7266 31.1094 49.25 31.1094C48.5469 31.1094 47.9193 30.9466 47.3672 30.6211C46.8151 30.2956 46.3802 29.8255 46.0625 29.2109C45.7448 28.5964 45.5859 27.8594 45.5859 27C45.5859 26.138 45.7461 25.401 46.0664 24.7891C46.3867 24.1745 46.8229 23.7044 47.375 23.3789C47.9271 23.0534 48.5521 22.8906 49.25 22.8906C49.6953 22.8906 50.1094 22.9531 50.4922 23.0781C50.875 23.2031 51.2161 23.3867 51.5156 23.6289C51.8151 23.8685 52.0612 24.1628 52.2539 24.5117C52.4492 24.8581 52.5768 25.2539 52.6367 25.6992ZM56.5186 31.1172C55.9326 31.1172 55.4248 30.9883 54.9951 30.7305C54.5654 30.4727 54.2321 30.112 53.9951 29.6484C53.7607 29.1849 53.6436 28.6432 53.6436 28.0234C53.6436 27.4036 53.7607 26.8607 53.9951 26.3945C54.2321 25.9284 54.5654 25.5664 54.9951 25.3086C55.4248 25.0508 55.9326 24.9219 56.5186 24.9219C57.1045 24.9219 57.6123 25.0508 58.042 25.3086C58.4717 25.5664 58.8037 25.9284 59.0381 26.3945C59.2751 26.8607 59.3936 27.4036 59.3936 28.0234C59.3936 28.6432 59.2751 29.1849 59.0381 29.6484C58.8037 30.112 58.4717 30.4727 58.042 30.7305C57.6123 30.9883 57.1045 31.1172 56.5186 31.1172ZM56.5264 29.9844C56.8441 29.9844 57.1097 29.8971 57.3232 29.7227C57.5368 29.5456 57.6956 29.3086 57.7998 29.0117C57.9066 28.7148 57.96 28.3841 57.96 28.0195C57.96 27.6523 57.9066 27.3203 57.7998 27.0234C57.6956 26.724 57.5368 26.4857 57.3232 26.3086C57.1097 26.1315 56.8441 26.043 56.5264 26.043C56.2008 26.043 55.93 26.1315 55.7139 26.3086C55.5003 26.4857 55.3402 26.724 55.2334 27.0234C55.1292 27.3203 55.0771 27.6523 55.0771 28.0195C55.0771 28.3841 55.1292 28.7148 55.2334 29.0117C55.3402 29.3086 55.5003 29.5456 55.7139 29.7227C55.93 29.8971 56.2008 29.9844 56.5264 29.9844ZM64.418 28.4766V25H65.832V31H64.4609V29.9336H64.3984C64.263 30.2695 64.0404 30.5443 63.7305 30.7578C63.4232 30.9714 63.0443 31.0781 62.5938 31.0781C62.2005 31.0781 61.8529 30.9909 61.5508 30.8164C61.2513 30.6393 61.0169 30.3828 60.8477 30.0469C60.6784 29.7083 60.5938 29.2995 60.5938 28.8203V25H62.0078V28.6016C62.0078 28.9818 62.112 29.2839 62.3203 29.5078C62.5286 29.7318 62.8021 29.8437 63.1406 29.8437C63.349 29.8437 63.5508 29.793 63.7461 29.6914C63.9414 29.5898 64.1016 29.4388 64.2266 29.2383C64.3542 29.0352 64.418 28.7812 64.418 28.4766ZM67.2861 31V25H68.6572V26H68.7197C68.8291 25.6536 69.0166 25.3867 69.2822 25.1992C69.5505 25.0091 69.8564 24.9141 70.2002 24.9141C70.2783 24.9141 70.3656 24.918 70.4619 24.9258C70.5609 24.931 70.6429 24.9401 70.708 24.9531V26.2539C70.6481 26.2331 70.5531 26.2148 70.4229 26.1992C70.2952 26.181 70.1715 26.1719 70.0518 26.1719C69.7939 26.1719 69.5622 26.2279 69.3564 26.3398C69.1533 26.4492 68.9932 26.6016 68.876 26.7969C68.7588 26.9922 68.7002 27.2174 68.7002 27.4727V31H67.2861ZM76.3896 26.5859L75.1006 26.7266C75.0641 26.5964 75.0003 26.474 74.9092 26.3594C74.8206 26.2448 74.7008 26.1523 74.5498 26.082C74.3988 26.0117 74.2139 25.9766 73.9951 25.9766C73.7008 25.9766 73.4535 26.0404 73.2529 26.168C73.055 26.2956 72.9574 26.4609 72.96 26.6641C72.9574 26.8385 73.0212 26.9805 73.1514 27.0898C73.2842 27.1992 73.5029 27.2891 73.8076 27.3594L74.8311 27.5781C75.3988 27.7005 75.8206 27.8945 76.0967 28.1602C76.3753 28.4258 76.516 28.7734 76.5186 29.2031C76.516 29.5807 76.4053 29.9141 76.1865 30.2031C75.9704 30.4896 75.6696 30.7135 75.2842 30.875C74.8988 31.0365 74.4561 31.1172 73.9561 31.1172C73.2217 31.1172 72.6305 30.9635 72.1826 30.6562C71.7347 30.3464 71.4678 29.9154 71.3818 29.3633L72.7607 29.2305C72.8232 29.5013 72.9561 29.7057 73.1592 29.8437C73.3623 29.9818 73.6266 30.0508 73.9521 30.0508C74.2881 30.0508 74.5576 29.9818 74.7607 29.8437C74.9665 29.7057 75.0693 29.5352 75.0693 29.332C75.0693 29.1602 75.0029 29.0182 74.8701 28.9062C74.7399 28.7943 74.5368 28.7083 74.2607 28.6484L73.2373 28.4336C72.6618 28.3138 72.236 28.112 71.96 27.8281C71.6839 27.5417 71.5472 27.1797 71.5498 26.7422C71.5472 26.3724 71.6475 26.0521 71.8506 25.7812C72.0563 25.5078 72.3415 25.2969 72.7061 25.1484C73.0732 24.9974 73.4964 24.9219 73.9756 24.9219C74.6787 24.9219 75.2321 25.0716 75.6357 25.3711C76.042 25.6706 76.2933 26.0755 76.3896 26.5859ZM80.3408 31.1172C79.7393 31.1172 79.2197 30.9922 78.7822 30.7422C78.3473 30.4896 78.0127 30.1328 77.7783 29.6719C77.5439 29.2083 77.4268 28.6628 77.4268 28.0352C77.4268 27.418 77.5439 26.8763 77.7783 26.4102C78.0153 25.9414 78.346 25.5768 78.7705 25.3164C79.195 25.0534 79.6937 24.9219 80.2666 24.9219C80.6364 24.9219 80.9854 24.9818 81.3135 25.1016C81.6442 25.2187 81.9359 25.401 82.1885 25.6484C82.4437 25.8958 82.6442 26.2109 82.79 26.5937C82.9359 26.974 83.0088 27.4271 83.0088 27.9531V28.3867H78.0908V27.4336H81.6533C81.6507 27.1628 81.5921 26.9219 81.4775 26.7109C81.363 26.4974 81.2028 26.3294 80.9971 26.207C80.7939 26.0846 80.557 26.0234 80.2861 26.0234C79.9971 26.0234 79.7432 26.0937 79.5244 26.2344C79.3057 26.3724 79.1351 26.5547 79.0127 26.7812C78.8929 27.0052 78.8317 27.2513 78.8291 27.5195V28.3516C78.8291 28.7005 78.8929 29 79.0205 29.25C79.1481 29.4974 79.3265 29.6875 79.5557 29.8203C79.7848 29.9505 80.0531 30.0156 80.3604 30.0156C80.5661 30.0156 80.7523 29.987 80.9189 29.9297C81.0856 29.8698 81.2301 29.7826 81.3525 29.668C81.4749 29.5534 81.5674 29.4115 81.6299 29.2422L82.9502 29.3906C82.8669 29.7396 82.708 30.0443 82.4736 30.3047C82.2419 30.5625 81.945 30.763 81.583 30.9062C81.221 31.0469 80.807 31.1172 80.3408 31.1172ZM86.9961 31V23H92.1211V24.2148H88.4453V26.3867H91.7695V27.6016H88.4453V31H86.9961ZM93.3789 31V25H94.793V31H93.3789ZM94.0898 24.1484C93.8659 24.1484 93.6732 24.0742 93.5117 23.9258C93.3503 23.7747 93.2695 23.5937 93.2695 23.3828C93.2695 23.1693 93.3503 22.9883 93.5117 22.8398C93.6732 22.6888 93.8659 22.6133 94.0898 22.6133C94.3164 22.6133 94.5091 22.6888 94.668 22.8398C94.8294 22.9883 94.9102 23.1693 94.9102 23.3828C94.9102 23.5937 94.8294 23.7747 94.668 23.9258C94.5091 24.0742 94.3164 24.1484 94.0898 24.1484ZM97.6611 23V31H96.2471V23H97.6611ZM101.771 31.1172C101.17 31.1172 100.65 30.9922 100.213 30.7422C99.778 30.4896 99.4434 30.1328 99.209 29.6719C98.9746 29.2083 98.8574 28.6628 98.8574 28.0352C98.8574 27.418 98.9746 26.8763 99.209 26.4102C99.446 25.9414 99.7767 25.5768 100.201 25.3164C100.626 25.0534 101.124 24.9219 101.697 24.9219C102.067 24.9219 102.416 24.9818 102.744 25.1016C103.075 25.2187 103.367 25.401 103.619 25.6484C103.874 25.8958 104.075 26.2109 104.221 26.5937C104.367 26.974 104.439 27.4271 104.439 27.9531V28.3867H99.5215V27.4336H103.084C103.081 27.1628 103.023 26.9219 102.908 26.7109C102.794 26.4974 102.633 26.3294 102.428 26.207C102.225 26.0846 101.988 26.0234 101.717 26.0234C101.428 26.0234 101.174 26.0937 100.955 26.2344C100.736 26.3724 100.566 26.5547 100.443 26.7812C100.324 27.0052 100.262 27.2513 100.26 27.5195V28.3516C100.26 28.7005 100.324 29 100.451 29.25C100.579 29.4974 100.757 29.6875 100.986 29.8203C101.215 29.9505 101.484 30.0156 101.791 30.0156C101.997 30.0156 102.183 29.987 102.35 29.9297C102.516 29.8698 102.661 29.7826 102.783 29.668C102.906 29.5534 102.998 29.4115 103.061 29.2422L104.381 29.3906C104.298 29.7396 104.139 30.0443 103.904 30.3047C103.673 30.5625 103.376 30.763 103.014 30.9062C102.652 31.0469 102.238 31.1172 101.771 31.1172ZM109.454 31H107.907L110.724 23H112.513L115.333 31H113.786L111.649 24.6406H111.587L109.454 31ZM109.505 27.8633H113.724V29.0273H109.505V27.8633ZM116.387 31V23H119.387C120.001 23 120.517 23.1146 120.934 23.3437C121.353 23.5729 121.669 23.888 121.883 24.2891C122.099 24.6875 122.207 25.1406 122.207 25.6484C122.207 26.1615 122.099 26.6172 121.883 27.0156C121.667 27.4141 121.348 27.7279 120.926 27.957C120.504 28.1836 119.984 28.2969 119.367 28.2969H117.379V27.1055H119.172C119.531 27.1055 119.826 27.043 120.055 26.918C120.284 26.793 120.453 26.6211 120.563 26.4023C120.674 26.1836 120.73 25.9323 120.73 25.6484C120.73 25.3646 120.674 25.1146 120.563 24.8984C120.453 24.6823 120.283 24.5143 120.051 24.3945C119.822 24.2721 119.526 24.2109 119.164 24.2109H117.836V31H116.387ZM123.466 31V23H126.466C127.08 23 127.596 23.1146 128.013 23.3437C128.432 23.5729 128.748 23.888 128.962 24.2891C129.178 24.6875 129.286 25.1406 129.286 25.6484C129.286 26.1615 129.178 26.6172 128.962 27.0156C128.746 27.4141 128.427 27.7279 128.005 27.957C127.583 28.1836 127.063 28.2969 126.446 28.2969H124.458V27.1055H126.251C126.61 27.1055 126.905 27.043 127.134 26.918C127.363 26.793 127.532 26.6211 127.642 26.4023C127.754 26.1836 127.81 25.9323 127.81 25.6484C127.81 25.3646 127.754 25.1146 127.642 24.8984C127.532 24.6823 127.362 24.5143 127.13 24.3945C126.901 24.2721 126.605 24.2109 126.243 24.2109H124.915V31H123.466Z" fill="#C0C0C0"/>
</g>
<defs>
<clipPath id="clip0_4_6">
<rect width="133" height="52" fill="white"/>
</clipPath>
</defs>
</svg>
